<svg xmlns="http://www.w3.org/2000/svg" viewBox="-8 -14 112 30" width="112" height="30"><g id="flock"><g transform="translate(0 0)"><path d="M-6 0.2 Q-3.2 -1.5 0 0.5 Q3.2 -1.5 6 0.2" fill="none" stroke="#26231F" stroke-width="1.15" stroke-linecap="round" stroke-linejoin="round"/></g><g transform="translate(24 -9)"><path d="M-6 0.2 Q-3.2 -1.5 0 0.5 Q3.2 -1.5 6 0.2" fill="none" stroke="#26231F" stroke-width="1.15" stroke-linecap="round" stroke-linejoin="round"/></g><g transform="translate(45 7)"><path d="M-6 0.2 Q-3.2 -1.5 0 0.5 Q3.2 -1.5 6 0.2" fill="none" stroke="#26231F" stroke-width="1.15" stroke-linecap="round" stroke-linejoin="round"/></g><g transform="translate(67 -3)"><path d="M-6 0.2 Q-3.2 -1.5 0 0.5 Q3.2 -1.5 6 0.2" fill="none" stroke="#26231F" stroke-width="1.15" stroke-linecap="round" stroke-linejoin="round"/></g><g transform="translate(96 11)"><path d="M-6 0.2 Q-3.2 -1.5 0 0.5 Q3.2 -1.5 6 0.2" fill="none" stroke="#26231F" stroke-width="1.15" stroke-linecap="round" stroke-linejoin="round"/></g></g></svg>
